# AST/ASF file generated using VICON BodyLanguage
# -----------------------------------------------
:version 1.10
:name VICON
:units
  mass 1.0
  length 0.45
  angle deg
:documentation
   .ast/.asf automatically generated from VICON data using
   VICON BodyBuilder and BodyLanguage model FoxedUp or BRILLIANT.MOD
:root
   order TX TY TZ RX RY RZ
   axis XYZ
   position 0 0 0  
   orientation 0 0 0 
:bonedata
  begin
     id 1 
     name lhipjoint
     direction 0.588788 -0.725889 0.355548 
     length 2.37778 
     axis 0 0 0  XYZ
  end
  begin
     id 2 
     name lfemur
     direction 0.34202 -0.939693 0  
     length 6.86393  
     axis 0 0 20  XYZ
    dof rx ry rz
    limits (-160.0 20.0)
           (-70.0 70.0)
           (-60.0 70.0)
  end
  begin
     id 3 
     name ltibia
     direction 0.34202 -0.939693 0   
     length 7.32851   
     axis 0 0 20   XYZ
    dof rx
    limits (-10.0 170.0)
  end
  begin
     id 4 
     name lfoot
     direction 0.0626533 -0.172138 0.983078   
     length 1.98929   
     axis -90 7.62852e-016 20   XYZ
    dof rx rz
    limits (-45.0 90.0)
           (-70.0 20.0)
  end
  begin
     id 5 
     name ltoes
     direction 1.53647e-011 -4.21734e-011 1   
     length 1.00479   
     axis -90 7.62852e-016 20   XYZ
    dof rx
    limits (-90.0 20.0)
  end
  begin
     id 6 
     name rhipjoint
     direction -0.59141 -0.724168 0.354705   
     length 2.38343  
     axis 0 0 0  XYZ 
  end
  begin
     id 7 
     name rfemur
     direction -0.34202 -0.939693 0   
     length 6.95589   
     axis 0 0 -20   XYZ
    dof rx ry rz
    limits (-160.0 20.0)
           (-70.0 70.0)
           (-70.0 60.0)
  end
  begin
     id 8 
     name rtibia
     direction -0.34202 -0.939693 0   
     length 7.32327   
     axis 0 0 -20   XYZ
    dof rx
    limits (-10.0 170.0)
 end
 begin
     id 9 
     name rfoot
     direction -0.0660461 -0.18146 0.981178   
     length 1.85272  
     axis -90 -7.62852e-016 -20   XYZ
    dof rx rz
    limits (-45.0 90.0)
           (-20.0 70.0)
  end
  begin
     id 10 
     name rtoes
     direction -1.53586e-011 -4.21988e-011 1   
     length 0.93746   
     axis -90 -7.62852e-016 -20   XYZ
    dof rx
    limits (-90.0 20.0)
  end
  begin
     id 11 
     name lowerback
     direction -0.0107982 0.991059 0.13299   
     length 1.98691   
     axis 0 0 0   XYZ
    dof rx ry rz
    limits (-20.0 45.0)
           (-30.0 30.0)
           (-30.0 30.0)
  end
  begin
     id 12 
     name upperback
     direction 0.0076296 0.999916 0.0104576   
     length 1.99501   
     axis 0 0 0   XYZ
    dof rx ry rz
    limits (-20.0 45.0)
           (-30.0 30.0)
           (-30.0 30.0)
  end
  begin
     id 13 
     name thorax
     direction 0.01176 0.998615 -0.0512909   
     length 2.03144   
     axis 0 0 0   XYZ
    dof rx ry rz
    limits (-20.0 45.0)
           (-30.0 30.0)
           (-30.0 30.0)
  end
  begin
     id 14 
     name lowerneck
     direction -0.0171909 0.999644 0.0204011   
     length 1.71818   
     axis 0 0 0   XYZ
    dof rx ry rz
    limits (-20.0 45.0)
           (-30.0 30.0)
           (-30.0 30.0)
  end
  begin
     id 15 
     name upperneck
     direction 0.0250902 0.997482 -0.0663316   
     length 1.66199   
     axis 0 0 0   XYZ
    dof rx ry rz
    limits (-20.0 45.0)
           (-30.0 30.0)
           (-30.0 30.0)
  end
  begin
     id 16
     name head
     direction 0.00881535 0.99956 -0.0283365  
     length 1.81545  
     axis 0 0 0   XYZ
    dof rx ry rz
    limits (-20.0 45.0)
           (-30.0 30.0)
           (-30.0 30.0)
  end
  begin
     id 17 
     name lclavicle
     direction 0.840411 0.486876 -0.238035  
     length 3.30409  
     axis 0 0 0   XYZ
    dof ry rz
    limits (-20.0 10.0)
           (0.0 20.0)
  end
  begin
     id 18 
     name lhumerus
     direction 1 -4.48977e-011 -5.16239e-027   
     length 4.62672   
     axis 180 -30 -90   XYZ
    dof rx ry rz
    limits (-60.0 90.0)
           (-90.0 90.0)
           (-90.0 90.0)
  end
  begin
     id 19
     name lradius
     direction 1 -4.48977e-011 -8.71171e-027   
     length 3.11018   
     axis 180 -30 -90   XYZ
    dof rx
    limits (-10.0 170.0)
  end
  begin
     id 20
     name lwrist
     direction 1 -4.48912e-011 -1.03764e-026   
     length 1.55509   
     axis 9.09556e-015 90 90   XYZ
    dof ry
    limits (-180.0 0.0)
 end
  begin
     id 21 
     name lhand
     direction 1 -4.49072e-011 -2.07528e-026   
     length 0.743834   
     axis 1.3242e-014 90 90   XYZ
    dof rx rz
    limits (-90.0 90.0)
           (-45.0 45.0)
  end
  begin
     id 22 
     name lfingers
     direction 1 -4.48909e-011 -4.15056e-026   
     length 0.599698   
     axis 2.64841e-014 90 90   XYZ
    dof rx
    limits (0.0 90.0)
  end
  begin
     id 23
     name lthumb
     direction 0.707107 -6.35013e-011 0.707107   
     length 0.86105   
     axis -90 45 2.85299e-015   XYZ
    dof rx rz
    limits (-45.0 45.0)
           (-45.0 45.0)
  end
  begin
     id 24 
     name rclavicle
     direction -0.835208 0.500237 -0.228452   
     length 3.2716  
     axis 0 0 0   XYZ 
    dof ry rz
    limits (-10.0 20.0)
           (-20.0 0.0)
  end
  begin
     id 25 
     name rhumerus
     direction -1 -4.48978e-011 -5.1953e-028  
     length 4.55919   
     axis 180 30 90   XYZ
    dof rx ry rz
    limits (-90.0 60.0)
           (-90.0 90.0)
           (-90.0 90.0)
  end
  begin
     id 26 
     name rradius
     direction -1 -4.48961e-011 -5.99546e-027   
     length 3.22748   
     axis 180 30 90   XYZ
    dof rx
    limits (-10.0 170.0)
  end
  begin
     id 27 
     name rwrist
     direction -1 -4.48986e-011 -1.03764e-026   
     length 1.61374   
     axis 9.09556e-015 -90 -90   XYZ
    dof ry
    limits (-180.0 0.0)
  end
  begin
     id 28
     name rhand
     direction -1 -4.4899e-011 -2.07528e-026   
     length 0.700882   
     axis 1.3242e-014 -90 -90   XYZ
    dof rx rz
    limits (-90.0 90.0)
           (-45.0 45.0)
  end
  begin
     id 29
     name rfingers
     direction -1 -4.48991e-011 -4.15056e-026   
     length 0.565069   
     axis 2.64841e-014 -90 -90   XYZ
    dof rx
    limits (0.0 90.0)
  end
  begin
     id 30
     name rthumb
     direction -0.707107 -6.34804e-011 0.707107   
     length 0.811329   
     axis -90 -45 -2.85299e-015   XYZ
    dof rx rz
    limits (-45.0 45.0)
           (-45.0 45.0)
  end
:hierarchy
  begin
    root lhipjoint rhipjoint lowerback
    lhipjoint lfemur
    lfemur ltibia
    ltibia lfoot
    lfoot ltoes
    rhipjoint rfemur
    rfemur rtibia
    rtibia rfoot
    rfoot rtoes
    lowerback upperback
    upperback thorax
    thorax lowerneck lclavicle rclavicle
    lowerneck upperneck
    upperneck head
    lclavicle lhumerus
    lhumerus lradius
    lradius lwrist
    lwrist lhand lthumb
    lhand lfingers
    rclavicle rhumerus
    rhumerus rradius
    rradius rwrist
    rwrist rhand rthumb
    rhand rfingers
  end

#!OML:ASF F:\VICON\USERDATA\INSTALL\SteveWalk\SteveWalk.ASF
:FULLY-SPECIFIED
:DEGREES
348
root 0.317007 16.1815 30.5199 17.2231 0.0881323 1.06533
lowerback -16.1876 -1.1185 -2.64697
upperback -5.12962 -1.05852 0.0410563
thorax 3.65706 -0.520895 1.34042
lowerneck -3.46822 -0.430742 -1.41692
upperneck 11.0405 -0.852023 3.48659
head 4.27654 -0.318762 1.3838
rclavicle 1.29715e-015 1.44119e-015
rhumerus -50.2601 -28.0154 -63.6849
rradius 15.5807
rwrist 12.4637
rhand -16.6239 -31.8525
rfingers 7.12502
rthumb 9.59825 -61.6138
lclavicle 1.29715e-015 1.44119e-015
lhumerus -29.2214 8.64146 81.8298
lradius 22.9834
lwrist -9.58641
lhand -17.1303 -14.4691
lfingers 7.12502
lthumb 9.10964 15.3142
rfemur -45.9417 -5.9494 22.2641
rtibia 62.6367
rfoot -12.7843 -1.68561
rtoes -9.76299
lfemur -25.3335 4.78102 -24.9929
ltibia 35.7717
lfoot -25.5021 -0.675318
ltoes -11.1261
349
root 0.311915 16.1616 30.7054 17.0106 0.433889 1.4991
lowerback -15.9456 -1.32436 -3.2132
upperback -4.87116 -1.24331 0.017795
thorax 3.81867 -0.616715 1.60187
lowerneck -3.7692 -0.504902 -1.47228
upperneck 10.9443 -0.961019 3.64976
head 4.30808 -0.365184 1.44435
rclavicle -8.57084e-015 3.18055e-015
rhumerus -52.6648 -31.6223 -58.7577
rradius 14.2312
rwrist 17.3344
rhand -16.2799 -32.5064
rfingers 7.12502
rthumb 9.93009 -62.2522
lclavicle -8.57084e-015 3.18055e-015
lhumerus -27.4606 6.40918 82.8242
lradius 24.0692
lwrist -7.73083
lhand -17.5221 -14.7981
lfingers 7.12502
lthumb 8.73157 15.0013
rfemur -46.4483 -5.96075 22.1048
rtibia 60.3708
rfoot -13.1558 -2.52172
rtoes -10.2477
lfemur -24.2562 4.96397 -25.291
ltibia 35.4669
lfoot -25.688 -1.48896
ltoes -9.86326
350
root 0.310678 16.1557 30.8939 17.0867 0.591959 1.83911
lowerback -15.8474 -1.48081 -3.61507
upperback -4.86286 -1.38835 -0.0236783
thorax 3.78922 -0.688378 1.75919
lowerneck -3.77072 -0.575368 -1.40198
upperneck 10.934 -1.07223 3.74823
head 4.30876 -0.41268 1.45967
rclavicle 1.60139e-014 6.36111e-015
rhumerus -56.1448 -34.9084 -52.99
rradius 13.2342
rwrist 22.5694
rhand -16.069 -33.2531
rfingers 7.12502
rthumb 10.1335 -62.9891
lclavicle 1.60139e-014 6.36111e-015
lhumerus -26.07 4.25393 83.4643
lradius 25.1754
lwrist -6.21534
lhand -18.1014 -14.5982
lfingers 7.12502
lthumb 8.17243 15.2237
rfemur -47.2119 -5.87817 21.9688
rtibia 57.8195
rfoot -13.5443 -3.06554
rtoes -8.64667
lfemur -23.3467 5.21791 -25.5706
ltibia 35.0091
lfoot -25.7629 -2.02782
ltoes -9.70242
351
root 0.305502 16.1565 31.0936 17.3428 0.461929 1.84465
lowerback -15.9262 -1.48728 -3.75514
upperback -5.04552 -1.37698 0.0076255
thorax 3.64053 -0.677909 1.87425
lowerneck -3.56036 -0.664318 -1.36199
upperneck 11.0029 -1.21301 3.88081
head 4.29753 -0.475951 1.49076
rclavicle 1.61434e-014 5.06901e-015
rhumerus -61.506 -38.5411 -44.6782
rradius 12.1405
rwrist 29.6304
rhand -15.7695 -33.7404
rfingers 7.12502
rthumb 10.4225 -63.462
lclavicle 1.61434e-014 5.06901e-015
lhumerus -24.964 2.27254 83.897
lradius 26.1927
lwrist -5.06879
lhand -18.4961 -14.5838
lfingers 7.12502
lthumb 7.79154 15.2527
rfemur -47.9731 -5.45806 22.1277
rtibia 54.9893
rfoot -13.9017 -3.65657
rtoes -8.50672
lfemur -22.4896 5.7002 -25.5702
ltibia 34.3719
lfoot -25.9078 -2.34929
ltoes -9.45384
352
root 0.307381 16.1637 31.2959 17.2734 1.13889 1.86395
lowerback -15.6457 -1.63618 -3.69266
upperback -5.14818 -1.59891 0.0664989
thorax 3.39596 -0.782082 1.86555
lowerneck -3.3525 -0.758212 -1.40388
upperneck 10.9902 -1.34719 3.9768
head 4.25782 -0.541661 1.52379
rclavicle 5.28138e-015 2.16178e-015
rhumerus -68.4032 -41.77 -34.3286
rradius 11.0384
rwrist 37.4266
rhand -15.945 -34.1014
rfingers 7.12502
rthumb 10.2532 -63.8315
lclavicle 5.28138e-015 2.16178e-015
lhumerus -23.8662 0.428034 84.3187
lradius 27.155
lwrist -4.30095
lhand -18.9885 -14.8731
lfingers 7.12502
lthumb 7.31623 14.9804
rfemur -48.1188 -5.63698 22.3303
rtibia 51.9075
rfoot -14.1824 -4.0826
rtoes -6.83674
lfemur -21.2646 5.65282 -25.3244
ltibia 33.603
lfoot -26.0178 -2.91223
ltoes -9.44929
353
root 0.31409 16.1725 31.4896 17.1645 1.71073 1.65214
lowerback -15.3153 -1.67112 -3.30521
upperback -5.18088 -1.72087 0.165394
thorax 3.18598 -0.839621 1.73559
lowerneck -3.276 -0.821096 -1.36762
upperneck 10.9051 -1.4297 3.95567
head 4.21384 -0.583221 1.505
rclavicle -1.17448e-014 4.39811e-015
rhumerus -77.2829 -44.3465 -21.5714
rradius 10.4023
rwrist 46.2385
rhand -16.2135 -34.1332
rfingers 7.12502
rthumb 9.99418 -63.8759
lclavicle -1.17448e-014 4.39811e-015
lhumerus -22.8387 -1.4198 84.6635
lradius 28.4491
lwrist -3.25669
lhand -19.4487 -15.3997
lfingers 7.12502
lthumb 6.872 14.4687
rfemur -48.1755 -5.76032 22.6871
rtibia 48.6653
rfoot -13.9733 -4.16367
rtoes -2.97567
lfemur -19.9887 5.905 -24.8674
ltibia 32.7938
lfoot -25.7696 -3.97642
ltoes -8.12867
354
root 0.335774 16.1801 31.693 17.141 2.38179 1.55728
lowerback -15.2826 -1.76939 -2.75706
upperback -5.14647 -1.93036 0.148441
thorax 3.20023 -0.945874 1.37083
lowerneck -3.25499 -0.82987 -1.25158
upperneck 10.874 -1.45007 3.96638
head 4.19774 -0.588455 1.48638
rclavicle 1.04448e-014 6.41081e-015
rhumerus -86.2085 -45.3494 -9.31804
rradius 10.3394
rwrist 54.2486
rhand -16.0589 -34.5042
rfingers 7.12502
rthumb 10.1433 -64.2396
lclavicle 1.04448e-014 6.41081e-015
lhumerus -21.8773 -2.91683 84.74
lradius 29.8868
lwrist -2.21502
lhand -19.7757 -15.9686
lfingers 7.12502
lthumb 6.55634 13.9099
rfemur -48.1423 -6.44592 23.0553
rtibia 45.3143
rfoot -13.7276 -3.99978
rtoes -2.60017
lfemur -18.6685 6.1887 -24.5799
ltibia 31.8578
lfoot -25.443 -5.22022
ltoes -6.24448
355
root 0.298929 16.1647 31.9089 17.2412 1.96143 2.10831
lowerback -15.5209 -1.85396 -3.93523
upperback -5.135 -1.85629 0.138822
thorax 3.36736 -0.907746 2.03336
lowerneck -3.07021 -0.865075 -1.33543
upperneck 10.7848 -1.502 4.08948
head 4.13391 -0.614775 1.53952
rclavicle 7.46935e-015 -1.94747e-015
rhumerus -93.6485 -44.8814 1.02459
rradius 10.3002
rwrist 60.8884
rhand -16.1887 -34.6885
rfingers 7.12502
rthumb 10.0182 -64.4301
lclavicle 7.46935e-015 -1.94747e-015
lhumerus -20.9456 -3.95349 84.6587
lradius 31.2355
lwrist -1.79142
lhand -19.9357 -16.5743
lfingers 7.12502
lthumb 6.40186 13.309
rfemur -48.2559 -5.33674 22.2847
rtibia 41.9885
rfoot -14.4874 -4.04065
rtoes -8.1887
lfemur -17.4007 6.68357 -25.0328
ltibia 30.8318
lfoot -25.3951 -5.34082
ltoes -6.61849
356
root 0.320704 16.182 32.11 17.2152 2.84364 2.05337
lowerback -15.4479 -2.03855 -3.44073
upperback -5.0735 -2.1753 0.151053
thorax 3.3988 -1.06794 1.70886
lowerneck -3.33374 -0.945302 -1.26973
upperneck 10.9136 -1.61904 4.09061
head 4.23561 -0.665791 1.52461
rclavicle 9.38395e-015 -2.7364e-015
rhumerus -99.1429 -43.7786 8.92021
rradius 10.236
rwrist 65.7898
rhand -16.763 -34.6399
rfingers 7.12502
rthumb 9.46399 -64.4074
lclavicle 9.38395e-015 -2.7364e-015
lhumerus -19.8805 -4.97945 84.5329
lradius 32.6456
lwrist -1.26076
lhand -19.9226 -16.6817
lfingers 7.12502
lthumb 6.41449 13.2011
rfemur -48.1284 -6.21796 22.5811
rtibia 38.614
rfoot -14.3428 -3.20425
rtoes -8.42145
lfemur -15.8384 6.81877 -24.7041
ltibia 29.7364
lfoot -25.2656 -6.0217
ltoes -7.19688
357
root 0.304073 16.1844 32.3214 17.2198 3.00685 2.38055
lowerback -15.6751 -2.16229 -3.98741
upperback -4.97935 -2.24153 0.120921
thorax 3.64022 -1.10433 1.96497
lowerneck -3.37255 -0.979401 -1.0046
upperneck 10.8612 -1.67538 4.02226
head 4.2212 -0.6858 1.45041
rclavicle 9.37639e-016 1.07965e-014
rhumerus -99.4165 -42.8267 9.12051
rradius 10.4836
rwrist 65.174
rhand -16.7535 -35.3224
rfingers 7.12502
rthumb 9.47318 -65.0895
lclavicle 9.37639e-016 1.07965e-014
lhumerus -18.9193 -6.0284 84.4677
lradius 33.9519
lwrist 0.00580189
lhand -20.7852 -17.3444
lfingers 7.12502
lthumb 5.5817 12.5621
rfemur -48.0442 -5.72818 22.0146
rtibia 35.3469
rfoot -14.0648 -3.22255
rtoes -8.45787
lfemur -14.3308 7.05412 -24.7934
ltibia 28.5706
lfoot -24.8267 -6.50641
ltoes -7.65392
358
root 0.304292 16.183 32.5378 17.2082 3.59268 2.1934
lowerback -15.9334 -2.28485 -3.71562
upperback -4.84886 -2.43627 0.255112
thorax 3.92483 -1.20582 1.90521
lowerneck -3.34734 -1.02254 -1.01961
upperneck 10.6221 -1.72633 4.04548
head 4.13248 -0.713184 1.45619
rclavicle -1.69073e-014 4.05024e-015
rhumerus -98.6084 -42.0882 7.7979
rradius 10.728
rwrist 63.3682
rhand -16.4877 -36.0937
rfingers 7.12502
rthumb 9.72961 -65.849
lclavicle -1.69073e-014 4.05024e-015
lhumerus -17.9375 -7.14307 84.4962
lradius 35.1101
lwrist 2.09206
lhand -22.0329 -18.4153
lfingers 7.12502
lthumb 4.37699 11.5195
rfemur -47.759 -5.85412 22.2561
rtibia 32.1301
rfoot -14.1112 -2.93284
rtoes -10.3342
lfemur -12.8847 7.22088 -24.2735
ltibia 27.3683
lfoot -24.6671 -6.82728
ltoes -10.4033
359
root 0.316078 16.1816 32.7548 17.1884 4.29878 2.02141
lowerback -15.9742 -2.41911 -3.26261
upperback -4.80514 -2.68702 0.374168
thorax 3.99546 -1.33001 1.72371
lowerneck -3.25027 -1.09883 -1.12823
upperneck 10.3577 -1.81276 4.05303
head 4.02319 -0.763569 1.47166
rclavicle 1.92039e-015 -6.95746e-016
rhumerus -101.058 -41.0577 11.6891
rradius 10.6096
rwrist 65.622
rhand -16.3334 -36.8223
rfingers 7.12502
rthumb 9.87848 -66.5705
lclavicle 1.92039e-015 -6.95746e-016
lhumerus -17.058 -8.32598 84.5197
lradius 36.338
lwrist 4.66665
lhand -22.3539 -18.8866
lfingers 7.12502
lthumb 4.06704 11.0543
rfemur -47.5588 -6.40878 22.6144
rtibia 29.1508
rfoot -14.0199 -1.82343
rtoes -9.66278
lfemur -11.4217 7.22164 -23.7712
ltibia 26.2384
lfoot -24.6289 -7.15741
ltoes -12.9467
